<?xml version="1.0" standalone="no"?>
<!DOCTYPE svg PUBLIC "-//W3C//DTD SVG 20010904//EN"
 "http://www.w3.org/TR/2001/REC-SVG-20010904/DTD/svg10.dtd">
<svg version="1.0" xmlns="http://www.w3.org/2000/svg"
 width="1280.000000pt" height="879.000000pt" viewBox="0 0 1280.000000 879.000000"
 preserveAspectRatio="xMidYMid meet">
<g transform="translate(0.000000,879.000000) scale(0.100000,-0.100000)"
fill="#000000" stroke="none">
<path d="M7517 8735 c-54 -179 -592 -1979 -599 -2002 -10 -38 -22 -48 -35 -30
-5 6 -77 198 -158 425 -82 226 -152 412 -155 412 -3 0 -84 -217 -181 -482
-117 -323 -180 -483 -189 -483 -10 0 -104 289 -314 968 -165 532 -303 967
-306 967 -3 0 -111 -395 -239 -877 -129 -483 -238 -893 -243 -911 -6 -20 -15
-32 -23 -30 -10 2 -572 495 -909 798 l-39 35 8 -631 c5 -414 4 -634 -3 -638
-5 -3 -155 57 -333 134 -178 77 -327 140 -331 140 -4 0 -8 -70 -8 -155 0 -148
-1 -155 -20 -155 -11 0 -417 83 -903 185 -485 102 -887 184 -894 183 -6 -2
279 -344 634 -761 354 -417 643 -763 640 -770 -2 -6 -164 -52 -361 -101 -197
-50 -358 -95 -359 -101 -3 -21 311 -224 551 -355 82 -46 80 -46 -383 -163
-359 -91 -853 -208 -1694 -403 -344 -79 -627 -146 -629 -149 -3 -3 1 -5 10 -5
55 0 2428 -250 2758 -291 194 -24 200 -25 200 -48 0 -51 -198 -304 -613 -784
-104 -120 -187 -220 -185 -222 2 -3 255 59 562 137 326 82 561 137 566 132 5
-5 -21 -153 -61 -349 -175 -852 -310 -1527 -307 -1537 10 -29 366 274 1110
944 164 148 302 268 308 268 14 0 14 0 -26 -439 -19 -216 -33 -395 -31 -398 3
-2 255 80 561 182 306 102 564 185 575 185 24 0 16 44 101 -540 39 -266 73
-486 75 -488 1 -2 200 256 441 572 276 362 445 575 454 573 8 -1 97 -119 197
-262 101 -142 189 -265 196 -272 11 -11 41 25 170 201 87 119 162 218 168 222
6 3 17 0 24 -7 7 -8 153 -266 325 -574 172 -308 316 -564 321 -569 6 -6 9 -6
9 2 0 10 37 332 124 1075 12 109 27 202 33 208 7 7 108 -90 324 -310 172 -176
315 -318 318 -315 3 3 35 166 71 361 36 196 70 358 76 360 6 2 282 -384 615
-859 332 -474 612 -871 621 -882 11 -14 17 -16 18 -7 0 7 -36 214 -80 460 -45
245 -115 634 -156 865 -44 245 -72 422 -67 427 6 6 115 -41 264 -112 318 -152
895 -418 972 -449 32 -12 61 -20 64 -16 11 11 -49 145 -213 476 -140 283 -476
934 -568 1102 -22 41 -28 60 -20 68 6 6 222 83 480 172 258 88 473 164 478
169 5 4 -146 166 -335 359 -189 193 -344 357 -344 363 0 7 441 140 1065 321
586 170 1067 311 1069 313 2 1 2 5 0 7 -2 2 -449 81 -994 176 -544 95 -993
174 -997 177 -5 2 -8 11 -8 20 0 9 66 193 146 410 81 217 144 396 141 400 -3
3 -133 0 -289 -6 -446 -18 -423 -18 -422 -1 1 8 261 375 579 815 317 440 580
806 583 814 3 9 -15 3 -49 -16 -354 -201 -1943 -1073 -1954 -1073 -13 0 -15
69 -17 531 l-3 531 -463 -419 c-255 -230 -470 -419 -477 -421 -17 -4 -22 31
-36 282 -18 342 -26 456 -30 461 -3 2 -150 -93 -329 -211 -178 -118 -330 -214
-336 -214 -7 0 -15 12 -18 28 -3 15 -60 439 -126 942 -67 503 -125 924 -129
935 l-8 20 -6 -20z"/>
</g>
</svg>
